<svg viewBox="0 0 64 64" xmlns="http://www.w3.org/2000/svg"><circle cx="33.5" cy="33.5" fill="#eaeaea" r="21.5"/><g stroke-linecap="round" stroke-linejoin="round" stroke-width="2"><circle cx="36" cy="21" fill="#fc8c29" r="13" stroke="#4c241d"/><path d="m36 1v2" fill="none" stroke="#4c241d"/><path d="m56 21h-2" fill="none" stroke="#4c241d"/><path d="m49 8 2-2" fill="none" stroke="#4c241d"/><path d="m9.067 12.26a9.5 9.5 0 1 0 8.933-6.26 9.476 9.476 0 0 0 -8.933 6.26" fill="#fff" stroke="#4c241d"/><path d="m19.5 17.5a7.5 7.5 0 1 1 7.5 7.5h-17.831a5.611 5.611 0 0 1 -5.655-5.108 5.5 5.5 0 0 1 5.878-5.878 5.283 5.283 0 0 1 2.026.558" fill="#fff" stroke="#4c241d"/><path d="m36.067 29.26a9.5 9.5 0 1 0 8.933-6.26 9.476 9.476 0 0 0 -8.933 6.26" fill="#fff" stroke="#4c241d"/><path d="m46.5 34.5a7.5 7.5 0 1 1 7.5 7.5h-17.831a5.611 5.611 0 0 1 -5.655-5.108 5.5 5.5 0 0 1 5.878-5.878 5.283 5.283 0 0 1 2.026.558" fill="#fff" stroke="#4c241d"/><path d="m11 32-1.214 2.185" fill="none" stroke="#00ccca"/><path d="m7.214 38.815-1.214 2.185" fill="none" stroke="#00ccca"/><path d="m15 32-1.214 2.185" fill="none" stroke="#02eae6"/><path d="m11.214 38.815-1.214 2.185" fill="none" stroke="#02eae6"/><path d="m20 32-1.214 2.185" fill="none" stroke="#00ccca"/><path d="m16.214 38.815-1.214 2.185" fill="none" stroke="#00ccca"/><path d="m24 32-1.214 2.185" fill="none" stroke="#02eae6"/><path d="m20.214 38.815-1.214 2.185" fill="none" stroke="#02eae6"/><path d="m28 48-1.214 2.185" fill="none" stroke="#00ccca"/><path d="m24.214 54.815-1.214 2.185" fill="none" stroke="#00ccca"/><path d="m32 48-1.214 2.185" fill="none" stroke="#02eae6"/><path d="m28.214 54.815-1.214 2.185" fill="none" stroke="#02eae6"/><path d="m37 48-1.214 2.185" fill="none" stroke="#00ccca"/><path d="m33.214 54.815-1.214 2.185" fill="none" stroke="#00ccca"/><path d="m41 48-1.214 2.185" fill="none" stroke="#02eae6"/><path d="m37.214 54.815-1.214 2.185" fill="none" stroke="#02eae6"/><path d="m45 48-1.214 2.185" fill="none" stroke="#00ccca"/><path d="m41.214 54.815-1.214 2.185" fill="none" stroke="#00ccca"/><path d="m49 48-1.214 2.185" fill="none" stroke="#02eae6"/><path d="m45.214 54.815-1.214 2.185" fill="none" stroke="#02eae6"/><path d="m54 48-1.214 2.185" fill="none" stroke="#00ccca"/><path d="m50.214 54.815-1.214 2.185" fill="none" stroke="#00ccca"/><path d="m58 48-1.214 2.185" fill="none" stroke="#02eae6"/><path d="m54.214 54.815-1.214 2.185" fill="none" stroke="#02eae6"/></g></svg>